<?xml version="1.0" encoding="utf-8"?>
<!-- Generator: Adobe Illustrator 17.0.0, SVG Export Plug-In . SVG Version: 6.00 Build 0)  -->
<!DOCTYPE svg PUBLIC "-//W3C//DTD SVG 1.1//EN" "http://www.w3.org/Graphics/SVG/1.1/DTD/svg11.dtd">
<svg version="1.1" id="Layer_1" xmlns="http://www.w3.org/2000/svg" xmlns:xlink="http://www.w3.org/1999/xlink" x="0px" y="0px"
	 width="92.041px" height="139.079px" viewBox="170.498 170.988 92.041 139.079"
	 enable-background="new 170.498 170.988 92.041 139.079" xml:space="preserve">
<g id="Layer_2">
	<path fill="#FFFFFF" d="M262.539,262.495c0,1.239-1.253,2.244-2.798,2.244h-9.71c-1.545,0-2.798-1.004-2.798-2.244V222.91
		c0-1.239,1.253-2.244,2.798-2.244h9.71c1.545,0,2.798,1.004,2.798,2.244V262.495z"/>
	<path fill="#FFFFFF" d="M185.5,262.461c0,1.258-1.228,2.278-2.742,2.278h-9.517c-1.515,0-2.742-1.02-2.742-2.278v-40.183
		c0-1.258,1.228-2.278,2.742-2.278h9.517c1.515,0,2.742,1.02,2.742,2.278V262.461z"/>
</g>
<g id="Layer_5">
	<line fill="#FFFFFF" x1="186.815" y1="199" x2="246.222" y2="199"/>
</g>
<g id="Layer_4">
	<path display="none" fill="#FFFFFF" d="M211.833,320.116c0,1.953-1.343,3.535-3,3.535h-21.681c-1.657,0-3-1.583-3-3.535v-29.247
		c0-1.953,1.343-3.535,3-3.535h21.681c1.657,0,3,1.583,3,3.535V320.116z"/>
	<path fill="#FFFFFF" d="M244.167,306.95c0,1.721-1.121,3.117-2.503,3.117h-18.089c-1.382,0-2.503-1.395-2.503-3.117v-25.784
		c0-1.721,1.121-3.117,2.503-3.117h18.089c1.382,0,2.503,1.395,2.503,3.117V306.95z"/>
	<path fill="#FFFFFF" d="M241.056,170.988h-46.291c0.202,0.661,0.332,1.382,0.34,2.194c0.04,3.924-2.445,6.097-6.191,6.454
		c-0.786,0.075-1.55-0.044-2.265-0.302v28.095c0,2.761,2.239,5,5,5h49.406c2.761,0,5-2.239,5-5v-31.441
		C246.056,173.227,243.817,170.988,241.056,170.988z M200.936,198.136c-3.515,0.335-6.649-3.039-6.418-6.692
		c0.249-3.934,2.56-5.874,6.406-6.186c3.888,0.42,6.164,2.58,6.203,6.424C207.167,195.606,204.682,197.779,200.936,198.136z
		 M231.676,198.136c-3.515,0.335-6.649-3.039-6.418-6.692c0.249-3.934,2.56-5.874,6.406-6.186c3.888,0.42,6.164,2.58,6.203,6.424
		C237.907,195.606,235.422,197.779,231.676,198.136z"/>
	<path fill="#FFFFFF" d="M212.811,306.95c0,1.721-1.155,3.117-2.581,3.117h-18.65c-1.425,0-2.581-1.395-2.581-3.117v-25.784
		c0-1.721,1.155-3.117,2.581-3.117h18.65c1.425,0,2.581,1.395,2.581,3.117V306.95z"/>
</g>
<g id="Layer_6">
	<path fill="#FFFFFF" d="M258.387,216.103h-14.22H189h-14.35c-2.293,0-4.152,1.974-4.152,4.408v12.722
		c0,2.434,1.859,4.408,4.152,4.408H189v45.256h55.167v-45.256h14.22c2.293,0,4.152-1.974,4.152-4.408v-12.722
		C262.539,218.076,260.68,216.103,258.387,216.103z M235.971,233.205c3.071,0.368,4.956,3.48,3.794,6.319
		c-0.211,0.516-0.529,1.025-0.912,1.427c-2.583,2.714-5.198,5.399-7.802,8.092c-0.044,0.046-0.096,0.083-0.189,0.162
		c-1.636-1.693-3.242-3.357-4.849-5.019c-1.019-1.054-2.039-2.108-3.061-3.159c-1.398-1.438-1.71-3.597-0.774-5.375
		c0.928-1.761,2.927-2.743,4.878-2.408c1.917,0.329,3.269,1.296,3.753,3.268c0.005,0.02,0.047,0.031,0.091,0.059"/>
</g>
</svg>
