<?xml version="1.0" encoding="utf-8"?>
<!-- Generator: Adobe Illustrator 17.0.0, SVG Export Plug-In . SVG Version: 6.00 Build 0)  -->
<!DOCTYPE svg PUBLIC "-//W3C//DTD SVG 1.1//EN" "http://www.w3.org/Graphics/SVG/1.1/DTD/svg11.dtd">
<svg version="1.1" id="Layer_1" xmlns="http://www.w3.org/2000/svg" xmlns:xlink="http://www.w3.org/1999/xlink" x="0px" y="0px"
	 width="69.438px" height="47.591px" viewBox="0 0 69.438 47.591" enable-background="new 0 0 69.438 47.591" xml:space="preserve">
<g>
	<path fill="#4D7EAE" d="M58.873,42.795c0-1.857-0.424-4.253,0.08-6.436c1.487-6.444,0.694-14.035,8.766-17.423
		c1.197-0.502,1.926-3.741,1.668-5.542c-0.188-1.312-2.427-3.335-3.622-3.249c-1.548,0.112-4.109,1.877-4.253,3.154
		c-0.771,6.82-6.499,8.289-11.071,10.96c-0.957,0.559-2.66,0.528-3.733,0.082c-4.462-1.856-9.17-12.81-8.485-17.57
		c0.292-2.029-0.976-4.657-2.339-6.374c-0.578-0.728-4.231-0.389-4.727,0.475c-1.083,1.886-2.158,5.188-1.232,6.535
		c2.253,3.281,1.709,6.16,0.749,9.408c-3.447,11.661-4.39,12.216-15.462,7.438c-2.352-1.015-4.244-3.095-6.353-4.677
		c-1.787-1.341-3.581-2.672-5.371-4.007c-1.258,1.716-3.64,3.546-3.48,5.118c0.185,1.814,2.466,3.563,4.113,5.03
		c1.131,1.007,3.461,1.137,3.999,2.26c2.475,5.172,4.901,10.437,6.538,15.91c0.833,2.785,1.506,4.012,4.519,3.637
		C32.185,45.904,45.209,44.411,58.873,42.795z"/>
	<path fill="#4D7EAE" d="M58.873,42.795c-13.664,1.616-26.688,3.109-39.696,4.73c-3.013,0.376-3.686-0.851-4.519-3.637
		c-1.637-5.473-4.063-10.739-6.538-15.91c-0.538-1.123-2.868-1.253-3.999-2.26c-1.647-1.467-3.928-3.216-4.113-5.03
		c-0.16-1.572,2.222-3.402,3.48-5.118c1.791,1.335,3.585,2.666,5.371,4.007c2.109,1.583,4.001,3.662,6.353,4.677
		c11.072,4.778,12.015,4.223,15.462-7.438c0.96-3.249,1.504-6.127-0.749-9.408c-0.925-1.347,0.15-4.649,1.232-6.535
		c0.496-0.864,4.149-1.203,4.727-0.475c1.364,1.717,2.631,4.345,2.339,6.374c-0.685,4.76,4.023,15.714,8.485,17.57
		c1.073,0.446,2.776,0.477,3.733-0.082c4.573-2.671,10.3-4.141,11.071-10.96c0.144-1.277,2.705-3.042,4.253-3.154
		c1.195-0.086,3.434,1.937,3.622,3.249c0.258,1.801-0.472,5.04-1.668,5.542c-8.072,3.388-7.279,10.979-8.766,17.423
		C58.449,38.542,58.873,40.938,58.873,42.795z M41.75,34.939c-2.526-1.51-4.103-3.211-5.321-2.984
		c-1.424,0.266-2.534,2.213-3.781,3.43c1.319,0.993,2.609,2.715,3.966,2.77C37.935,38.21,39.324,36.555,41.75,34.939z"/>
</g>
<polygon fill="#4D7EAE" points="36.008,41.898 46.508,33.231 37.842,26.064 29.508,35.231 "/>
</svg>
