<?xml version="1.0" encoding="utf-8"?>
<!-- Generator: Adobe Illustrator 17.0.0, SVG Export Plug-In . SVG Version: 6.00 Build 0)  -->
<!DOCTYPE svg PUBLIC "-//W3C//DTD SVG 1.1//EN" "http://www.w3.org/Graphics/SVG/1.1/DTD/svg11.dtd">
<svg version="1.1" xmlns="http://www.w3.org/2000/svg" xmlns:xlink="http://www.w3.org/1999/xlink" x="0px" y="0px" width="210.5px"
	 height="210.5px" viewBox="0 0 210.5 210.5" enable-background="new 0 0 210.5 210.5" xml:space="preserve">
<g id="Layer_3">
	<circle fill="#4D7FAF" cx="105.25" cy="105.25" r="105.25"/>
</g>
<g id="Layer_2">
	<path fill="#FFFFFF" d="M151.206,125.376c0,1.239-1.253,2.244-2.798,2.244h-9.71c-1.545,0-2.798-1.004-2.798-2.244V85.791
		c0-1.239,1.253-2.244,2.798-2.244h9.71c1.545,0,2.798,1.004,2.798,2.244V125.376z"/>
	<path fill="#FFFFFF" d="M74.167,125.342c0,1.258-1.228,2.278-2.742,2.278h-9.517c-1.515,0-2.742-1.02-2.742-2.278V85.158
		c0-1.258,1.228-2.278,2.742-2.278h9.517c1.515,0,2.742,1.02,2.742,2.278V125.342z"/>
</g>
<g id="Layer_4">
	<path display="none" fill="#FFFFFF" d="M100.5,182.997c0,1.953-1.343,3.535-3,3.535H75.819c-1.657,0-3-1.583-3-3.535V153.75
		c0-1.953,1.343-3.535,3-3.535H97.5c1.657,0,3,1.583,3,3.535V182.997z"/>
	<path fill="#FFFFFF" d="M132.833,169.83c0,1.721-1.121,3.117-2.503,3.117h-18.089c-1.382,0-2.503-1.395-2.503-3.117v-25.784
		c0-1.721,1.121-3.117,2.503-3.117h18.089c1.382,0,2.503,1.395,2.503,3.117V169.83z"/>
	<path fill="#FFFFFF" d="M129.722,33.869H83.432c0.202,0.661,0.332,1.382,0.34,2.194c0.04,3.924-2.445,6.097-6.191,6.454
		c-0.786,0.075-1.55-0.044-2.265-0.302V70.31c0,2.761,2.239,5,5,5h49.406c2.761,0,5-2.239,5-5V38.869
		C134.722,36.108,132.484,33.869,129.722,33.869z M89.603,61.017c-3.515,0.335-6.649-3.039-6.418-6.692
		c0.249-3.934,2.56-5.874,6.406-6.186c3.888,0.42,6.164,2.58,6.203,6.424C95.834,58.487,93.349,60.66,89.603,61.017z
		 M120.343,61.017c-3.515,0.335-6.649-3.039-6.418-6.692c0.249-3.934,2.56-5.874,6.406-6.186c3.888,0.42,6.164,2.58,6.203,6.424
		C126.574,58.487,124.089,60.66,120.343,61.017z"/>
	<path fill="#FFFFFF" d="M101.477,169.83c0,1.721-1.155,3.117-2.581,3.117h-18.65c-1.425,0-2.581-1.395-2.581-3.117v-25.784
		c0-1.721,1.155-3.117,2.581-3.117h18.65c1.425,0,2.581,1.395,2.581,3.117V169.83z"/>
</g>
<g id="Layer_6">
	<path fill="#FFFFFF" d="M147.054,78.984h-14.22H77.667h-14.35c-2.293,0-4.152,1.974-4.152,4.408v12.722
		c0,2.434,1.859,4.408,4.152,4.408h14.35v45.256h55.167v-45.256h14.22c2.293,0,4.152-1.974,4.152-4.408V83.392
		C151.206,80.957,149.347,78.984,147.054,78.984z M128.431,102.405c-0.211,0.516-0.529,1.025-0.912,1.427
		c-2.583,2.714-5.198,5.399-7.802,8.092c-0.044,0.046-0.096,0.083-0.189,0.162c-1.636-1.693-3.242-3.357-4.849-5.019
		c-1.019-1.054-2.039-2.108-3.061-3.159c-1.398-1.438-1.71-3.597-0.774-5.375c0.928-1.761,2.927-2.743,4.878-2.408
		c1.917,0.329,3.269,1.296,3.753,3.268c0.005,0.02,0.047,0.031,0.091,0.059c0.107-0.302,0.192-0.608,0.321-0.895
		c0.755-1.676,2.751-2.71,4.75-2.471C127.708,96.454,129.594,99.566,128.431,102.405z"/>
</g>
</svg>
