<?xml version="1.0" encoding="utf-8"?>
<!-- Generator: Adobe Illustrator 17.0.0, SVG Export Plug-In . SVG Version: 6.00 Build 0)  -->
<!DOCTYPE svg PUBLIC "-//W3C//DTD SVG 1.1//EN" "http://www.w3.org/Graphics/SVG/1.1/DTD/svg11.dtd">
<svg version="1.1" id="Layer_1" xmlns="http://www.w3.org/2000/svg" xmlns:xlink="http://www.w3.org/1999/xlink" x="0px" y="0px"
	 width="741.392px" height="252.262px" viewBox="0 0 741.392 252.262" enable-background="new 0 0 741.392 252.262"
	 xml:space="preserve">
<g>
	<path fill="#4B656B" d="M741.392,60.473c0,63.93,0,127.859,0,191.789c-247.131,0-494.261,0-741.392,0c0-63.93,0-127.859,0-191.789
		c28.252-3.281,53.274-13.66,74.268-33.266c5.899-5.509,12.072-10.886,18.773-15.342c14.786-9.832,30.66-15.903,48.499-8.673
		c12.962,5.253,15.847,13.753,8.748,25.6c-3.234-2.477-6.398-4.9-9.688-7.419c-7.656,14.149-5.697,20.93,7.126,28.488
		c30.035,17.702,59.188,10.123,86.778-4.949c15.257-8.335,28.359-20.651,42.31-31.331c12.595-9.642,26.398-15.239,42.519-13.143
		c16.17,2.103,23.957,14.334,18.443,24.908c-6.185,0.762-10.968,1.35-15.752,1.939c1.271,5.65,0.749,13.114,4.216,16.543
		c5.832,5.767,13.71,10.654,21.59,12.94c24.63,7.147,48.516,2.117,70.117-10.251c13.882-7.948,26.188-18.852,38.545-29.212
		C475.948,0.995,499.886-4.41,515.777,4.852c11.641,6.785,13.174,13.718,5.075,25.882c-2.158-4.083-4.241-8.024-6.979-13.206
		c-10.627,14.222-8.244,22.528,1.239,29.516c25.346,18.678,52.83,15.46,78.585,3.516c17.762-8.238,32.9-22.173,49.114-33.698
		c13.831-9.832,28.234-18.142,46.05-16.364c16.699,1.666,25.454,14.824,18.101,27.856c-3.284-2.318-6.513-4.597-10.151-7.164
		c-6.168,8.433-5.342,15.371,0.602,22.587C708.968,57.805,725.198,58.97,741.392,60.473z"/>
</g>
</svg>
